# AST/ASF file generated using VICON BodyLanguage
# -----------------------------------------------
:version 1.10
:name VICON
:units
  mass 1.0
  length 0.45
  angle deg
:documentation
   .ast/.asf automatically generated from VICON data using
   VICON BodyBuilder and BodyLanguage model FoxedUp or BRILLIANT.MOD
:root
   order TX TY TZ RX RY RZ
   axis XYZ
   position 0 0 0  
   orientation 0 0 0 
:bonedata
  begin
     id 1 
     name lhipjoint
     direction 0.603808 -0.713975 0.35448 
     length 2.2025 
     axis 0 0 0  XYZ
  end
  begin
     id 2 
     name lfemur
     direction 0.34202 -0.939693 0  
     length 6.55877  
     axis 0 0 20  XYZ
    dof rx ry rz
    limits (-160.0 20.0)
           (-70.0 70.0)
           (-60.0 70.0)
  end
  begin
     id 3 
     name ltibia
     direction 0.34202 -0.939693 0   
     length 6.80302   
     axis 0 0 20   XYZ
    dof rx
    limits (-10.0 170.0)
  end
  begin
     id 4 
     name lfoot
     direction 0.091848 -0.25235 0.963267   
     length 2.03446   
     axis -90 7.62852e-016 20   XYZ
    dof rx rz
    limits (-45.0 90.0)
           (-70.0 20.0)
  end
  begin
     id 5 
     name ltoes
     direction 1.53608e-011 -4.21925e-011 1   
     length 1.02033   
     axis -90 7.62852e-016 20   XYZ
    dof rx
    limits (-90.0 20.0)
  end
  begin
     id 6 
     name rhipjoint
     direction -0.587285 -0.724947 0.359928   
     length 2.16916  
     axis 0 0 0  XYZ 
  end
  begin
     id 7 
     name rfemur
     direction -0.34202 -0.939693 0   
     length 6.43173   
     axis 0 0 -20   XYZ
    dof rx ry rz
    limits (-160.0 20.0)
           (-70.0 70.0)
           (-70.0 60.0)
  end
  begin
     id 8 
     name rtibia
     direction -0.34202 -0.939693 0   
     length 6.70662   
     axis 0 0 -20   XYZ
    dof rx
    limits (-10.0 170.0)
 end
 begin
     id 9 
     name rfoot
     direction -0.11854 -0.325686 0.938018   
     length 2.0773  
     axis -90 -7.62852e-016 -20   XYZ
    dof rx rz
    limits (-45.0 90.0)
           (-20.0 70.0)
  end
  begin
     id 10 
     name rtoes
     direction -1.53547e-011 -4.21838e-011 1   
     length 1.03267   
     axis -90 -7.62852e-016 -20   XYZ
    dof rx
    limits (-90.0 20.0)
  end
  begin
     id 11 
     name lowerback
     direction -0.0286554 0.999539 0.0100613   
     length 2.08751   
     axis 0 0 0   XYZ
    dof rx ry rz
    limits (-20.0 45.0)
           (-30.0 30.0)
           (-30.0 30.0)
  end
  begin
     id 12 
     name upperback
     direction 0.0227093 0.999705 -0.00860929   
     length 2.08517   
     axis 0 0 0   XYZ
    dof rx ry rz
    limits (-20.0 45.0)
           (-30.0 30.0)
           (-30.0 30.0)
  end
  begin
     id 13 
     name thorax
     direction 0.0351627 0.999285 -0.013892   
     length 2.08412   
     axis 0 0 0   XYZ
    dof rx ry rz
    limits (-20.0 45.0)
           (-30.0 30.0)
           (-30.0 30.0)
  end
  begin
     id 14 
     name lowerneck
     direction -0.0696283 0.997344 0.0213922   
     length 1.44164   
     axis 0 0 0   XYZ
    dof rx ry rz
    limits (-20.0 45.0)
           (-30.0 30.0)
           (-30.0 30.0)
  end
  begin
     id 15 
     name upperneck
     direction 0.0531 0.990412 -0.127531   
     length 1.45022   
     axis 0 0 0   XYZ
    dof rx ry rz
    limits (-20.0 45.0)
           (-30.0 30.0)
           (-30.0 30.0)
  end
  begin
     id 16
     name head
     direction 0.0188154 0.998548 -0.0504727  
     length 1.45845  
     axis 0 0 0   XYZ
    dof rx ry rz
    limits (-20.0 45.0)
           (-30.0 30.0)
           (-30.0 30.0)
  end
  begin
     id 17 
     name lclavicle
     direction 0.961559 0.260051 0.088188  
     length 2.86057  
     axis 0 0 0   XYZ
    dof ry rz
    limits (-20.0 10.0)
           (0.0 20.0)
  end
  begin
     id 18 
     name lhumerus
     direction 1 -4.48959e-011 2.88185e-027   
     length 4.36901   
     axis 180 -30 -90   XYZ
    dof rx ry rz
    limits (-60.0 90.0)
           (-90.0 90.0)
           (-90.0 90.0)
  end
  begin
     id 19
     name lradius
     direction 1 -4.48965e-011 -3.92618e-028   
     length 3.21737   
     axis 180 -30 -90   XYZ
    dof rx
    limits (-10.0 170.0)
  end
  begin
     id 20
     name lwrist
     direction 1 -4.49037e-011 2.57246e-027   
     length 1.60869   
     axis -1.61769e-015 90 90   XYZ
    dof ry
    limits (-180.0 0.0)
 end
  begin
     id 21 
     name lhand
     direction 1 -4.48807e-011 5.12958e-027   
     length 0.564313   
     axis -3.27988e-015 90 90   XYZ
    dof rx rz
    limits (-90.0 90.0)
           (-45.0 45.0)
  end
  begin
     id 22 
     name lfingers
     direction 1 -4.48879e-011 1.02687e-026   
     length 0.454963   
     axis -6.5598e-015 90 90   XYZ
    dof rx
    limits (0.0 90.0)
  end
  begin
     id 23
     name lthumb
     direction 0.707107 -6.3475e-011 0.707107   
     length 0.653239   
     axis -90 45 2.19363e-014   XYZ
    dof rx rz
    limits (-45.0 45.0)
           (-45.0 45.0)
  end
  begin
     id 24 
     name rclavicle
     direction -0.954677 0.253915 0.155304   
     length 3.11497  
     axis 0 0 0   XYZ 
    dof ry rz
    limits (-10.0 20.0)
           (-20.0 0.0)
  end
  begin
     id 25 
     name rhumerus
     direction -1 -4.48958e-011 -8.20169e-028  
     length 4.34118   
     axis 180 30 90   XYZ
    dof rx ry rz
    limits (-90.0 60.0)
           (-90.0 90.0)
           (-90.0 90.0)
  end
  begin
     id 26 
     name rradius
     direction -1 -4.48978e-011 1.5676e-027   
     length 3.09531   
     axis 180 30 90   XYZ
    dof rx
    limits (-10.0 170.0)
  end
  begin
     id 27 
     name rwrist
     direction -1 -4.49001e-011 2.57123e-027   
     length 1.54765   
     axis -1.61769e-015 -90 -90   XYZ
    dof ry
    limits (-180.0 0.0)
  end
  begin
     id 28
     name rhand
     direction -1 -4.48847e-011 5.13225e-027   
     length 0.597446   
     axis -3.27988e-015 -90 -90   XYZ
    dof rx rz
    limits (-90.0 90.0)
           (-45.0 45.0)
  end
  begin
     id 29
     name rfingers
     direction -1 -4.49094e-011 1.02974e-026   
     length 0.481677   
     axis -6.5598e-015 -90 -90   XYZ
    dof rx
    limits (0.0 90.0)
  end
  begin
     id 30
     name rthumb
     direction -0.707107 -6.34859e-011 0.707107   
     length 0.691594   
     axis -90 -45 -2.19363e-014   XYZ
    dof rx rz
    limits (-45.0 45.0)
           (-45.0 45.0)
  end
:hierarchy
  begin
    root lhipjoint rhipjoint lowerback
    lhipjoint lfemur
    lfemur ltibia
    ltibia lfoot
    lfoot ltoes
    rhipjoint rfemur
    rfemur rtibia
    rtibia rfoot
    rfoot rtoes
    lowerback upperback
    upperback thorax
    thorax lowerneck lclavicle rclavicle
    lowerneck upperneck
    upperneck head
    lclavicle lhumerus
    lhumerus lradius
    lradius lwrist
    lwrist lhand lthumb
    lhand lfingers
    rclavicle rhumerus
    rhumerus rradius
    rradius rwrist
    rwrist rhand rthumb
    rhand rfingers
  end

#!OML:ASF I:\Acrobat_Osman\acrobat\cartwheel_test 2\Patient 1\Session 1\acrobat.ASF
:FULLY-SPECIFIED
:DEGREES
931
root 10.3561 15.348 -18.4496 362.498 489.831 -724.377
lowerback -0.448054 0.863978 0.149741
upperback 0.962952 1.17264 2.85228
thorax 1.18133 0.595906 2.86034
lowerneck -7.66602 9.11202 3.30851
upperneck 12.879 14.1161 -11.2926
head 6.22627 6.47071 -2.89589
rclavicle -7.55382e-015 -5.40694e-014
rhumerus -27.1066 -22.8465 357.917
rradius 52.8303
rwrist -381.415
rhand -33.4555 40.8674
rfingers 7.12502
rthumb -6.65398 10.992
lclavicle -7.55382e-015 -5.40694e-014
lhumerus -23.202 11.9206 27.7461
lradius 65.805
lwrist 52.3174
lhand -25.7511 44.897
lfingers 7.12502
lthumb 0.786123 74.8753
rfemur -26.0994 19.2794 6.38818
rtibia 51.3006
rfoot -16.9662 -9.00212
rtoes -25.7014
lfemur -26.8591 -9.74589 -15.8781
ltibia 46.243
lfoot 4.46604 -35.1812
ltoes 23.0717
932
root 10.4932 15.4631 -18.0892 362.674 497.931 -724.471
lowerback -0.171013 1.26502 -0.631048
upperback 1.04506 1.69949 1.89348
thorax 1.0905 0.845656 2.31271
lowerneck -7.53041 9.99237 3.73811
upperneck 12.876 15.3517 -11.3315
head 6.33344 7.10679 -2.84771
rclavicle 3.75703e-014 1.74931e-014
rhumerus -28.3284 -23.2397 358.813
rradius 53.7704
rwrist -383.016
rhand -33.778 40.342
rfingers 7.12502
rthumb -6.96526 10.4766
lclavicle 3.75703e-014 1.74931e-014
lhumerus -19.2676 11.8772 24.6285
lradius 64.8653
lwrist 53.3486
lhand -26.1864 45.4773
lfingers 7.12502
lthumb 0.36569 75.4568
rfemur -23.419 14.2119 8.93481
rtibia 50.4034
rfoot -18.3626 -12.9725
rtoes -24.8231
lfemur -27.987 -7.79162 -16.1884
ltibia 45.8135
lfoot -0.780271 -32.6674
ltoes 2.33093
933
root 10.6545 15.5774 -17.749 363.593 505.911 -723.967
lowerback -0.280079 1.66222 -0.728673
upperback 1.14893 2.22518 0.933289
thorax 1.26849 1.10442 1.39334
lowerneck -8.05111 10.7547 4.19756
upperneck 13.2776 16.4426 -11.2116
head 6.6648 7.63697 -2.71831
rclavicle 3.27995e-015 -1.82882e-014
rhumerus -29.2964 -23.8543 360.048
rradius 54.5334
rwrist -385.23
rhand -33.0816 37.9687
rfingers 7.12502
rthumb -6.29303 8.08218
lclavicle 3.27995e-015 -1.82882e-014
lhumerus -15.4035 12.1324 21.4923
lradius 63.891
lwrist 54.5161
lhand -26.3316 45.8169
lfingers 7.12502
lthumb 0.225459 75.7965
rfemur -21.547 9.30354 11.6171
rtibia 49.1019
rfoot -18.4441 -17.1375
rtoes -26.683
lfemur -29.4519 -4.78395 -16.6062
ltibia 46.0105
lfoot -7.10274 -26.3368
ltoes -24.3728
934
root 10.8133 15.7164 -17.4442 364.854 514.274 -722.792
lowerback -0.426366 1.82161 0.186487
upperback 1.24532 2.43447 0.189852
thorax 1.51325 1.22161 0.132372
lowerneck -8.50494 11.414 4.66218
upperneck 13.7997 17.4182 -11.0548
head 7.01521 8.11358 -2.58102
rclavicle -3.16068e-014 2.42517e-014
rhumerus -30.4315 -24.4139 361.644
rradius 53.6538
rwrist -385.334
rhand -33.8152 43.8339
rfingers 7.12502
rthumb -7.00115 13.9697
lclavicle -3.16068e-014 2.42517e-014
lhumerus -12.3025 12.2007 18.3586
lradius 63.1653
lwrist 56.1616
lhand -25.9935 45.3768
lfingers 7.12502
lthumb 0.552009 75.3558
rfemur -20.6462 6.1099 14.197
rtibia 47.9101
rfoot -18.0485 -19.9832
rtoes -24.3351
lfemur -30.7665 -1.67277 -16.7789
ltibia 46.4407
lfoot -9.34631 -17.1635
ltoes -36.4869
935
root 10.9633 15.8116 -17.1429 365.88 522.32 -721.543
lowerback -0.22714 1.93438 1.2054
upperback 1.39496 2.58697 -0.381721
thorax 1.62702 1.31739 -1.02137
lowerneck -8.60505 11.9866 5.15284
upperneck 13.6274 18.2201 -11.1834
head 7.10063 8.52383 -2.58541
rclavicle 1.5704e-014 1.15295e-014
rhumerus -32.866 -21.3253 362.33
rradius 56.0313
rwrist -391.281
rhand -33.6167 38.5219
rfingers 7.12502
rthumb -6.80956 8.65141
lclavicle 1.5704e-014 1.15295e-014
lhumerus -9.89978 12.7055 15.3676
lradius 62.3361
lwrist 57.5806
lhand -26.1073 45.1563
lfingers 7.12502
lthumb 0.442072 75.1356
rfemur -20.6015 4.32427 16.5249
rtibia 47.6142
rfoot -16.3957 -22.1137
rtoes -24.0002
lfemur -32.0537 1.65958 -16.8493
ltibia 47.5936
lfoot -9.70393 -4.02623
ltoes -39.4897
936
root 11.133 15.9158 -16.8348 366.656 530.07 -720.727
lowerback 0.202719 2.01891 1.46279
upperback 1.64895 2.723 -0.878925
thorax 1.68708 1.40098 -1.68202
lowerneck -8.71406 12.4933 5.60091
upperneck 12.9594 18.8831 -11.5458
head 7.04081 8.85929 -2.67975
rclavicle 5.74736e-014 -5.41688e-015
rhumerus -35.2021 -21.2981 363.459
rradius 56.9115
rwrist -391.556
rhand -34.8941 40.5403
rfingers 7.12502
rthumb -8.04255 10.7133
lclavicle 5.74736e-014 -5.41688e-015
lhumerus -8.10957 14.02 12.7773
lradius 61.3572
lwrist 57.9952
lhand -27.011 43.6793
lfingers 7.12502
lthumb -0.430728 73.6587
rfemur -21.681 3.34392 18.0576
rtibia 48.4416
rfoot -13.9879 -23.1251
rtoes -23.5688
lfemur -33.266 5.17457 -17.0555
ltibia 49.2915
lfoot -10.5663 4.32745
ltoes -38.2733
937
root 11.3285 15.975 -16.5146 367.235 537.998 -720.386
lowerback 1.06789 1.9061 0.830236
upperback 1.96912 2.61522 -1.2065
thorax 1.51276 1.35433 -1.69129
lowerneck -9.69514 13.5535 5.18475
upperneck 13.0196 19.077 -11.2634
head 7.18212 8.47331 -2.49041
rclavicle 3.37685e-014 -1.45113e-014
rhumerus -37.7643 -21.7829 364.474
rradius 57.5905
rwrist -391.383
rhand -34.579 39.9977
rfingers 7.12502
rthumb -7.73845 10.1593
lclavicle 3.37685e-014 -1.45113e-014
lhumerus -7.57509 15.4511 10.5525
lradius 59.7761
lwrist 57.597
lhand -25.1472 45.1776
lfingers 7.12502
lthumb 1.36937 75.153
rfemur -23.7438 3.31573 18.7591
rtibia 50.6026
rfoot -12.4958 -23.5642
rtoes -17.4069
lfemur -34.5913 7.98612 -17.1896
ltibia 51.5322
lfoot -11.4853 6.10309
ltoes -33.494
